<?xml version="1.0" standalone="no"?>
<!DOCTYPE svg PUBLIC "-//W3C//DTD SVG 1.1//EN" "http://www.w3.org/Graphics/SVG/1.1/DTD/svg11.dtd" >
<svg>
<metadata>
Created by FontForge 20120731 at Mon Jan 15 17:44:22 2018
 By www-data
Copyright (c) 2009 by The Entente (AS &#38; EH). All rights reserved.
</metadata>
<defs>
<font id="Apercu-Mono" horiz-adv-x="620" >
  <font-face 
    font-family="Apercu"
    font-weight="400"
    font-stretch="normal"
    units-per-em="1000"
    panose-1="2 0 5 6 3 0 0 2 0 4"
    ascent="800"
    descent="-200"
    x-height="504"
    cap-height="700"
    bbox="-11 -244 612 949"
    underline-thickness="50"
    underline-position="-50"
    unicode-range="U+0020-FB02"
  />
<missing-glyph 
d="M533 0h-447v700h447v-700zM449 76v548h-279v-548h279z" />
    <glyph glyph-name=".notdef" 
d="M533 0h-447v700h447v-700zM449 76v548h-279v-548h279z" />
    <glyph glyph-name="NULL" horiz-adv-x="0" 
 />
    <glyph glyph-name="CR" horiz-adv-x="333" 
 />
    <glyph glyph-name="space" unicode=" " 
 />
    <glyph glyph-name="exclam" unicode="!" 
d="M277 200l-24 500h114l-24 -500h-66zM240 65c0 40 30 71 70 71s70 -31 70 -71c0 -39 -30 -68 -70 -68s-70 29 -70 68z" />
    <glyph glyph-name="quotedbl" unicode="&#x22;" 
d="M246 462h-64l-25 246h114zM437 462h-64l-25 246h114z" />
    <glyph glyph-name="numbersign" unicode="#" 
d="M182 418h-102v74h114l33 208h78l-33 -208h131l34 208h78l-34 -208h98v-74h-110l-22 -136h102v-74h-114l-33 -208h-78l33 208h-131l-34 -208h-78l34 208h-98v74h110zM391 418h-131l-22 -136h131z" />
    <glyph glyph-name="dollar" unicode="$" 
d="M540 558l-77 -39c-31 71 -78 106 -142 106c-77 0 -126 -41 -126 -109c0 -34 13 -59 38 -74c26 -15 67 -30 124 -45c51 -13 78 -21 115 -41c55 -28 81 -68 84 -141c0 -133 -73 -208 -192 -221v-94h-80v94c-116 13 -197 86 -221 206l82 32c27 -104 87 -156 179 -156
c88 0 144 44 144 127c0 29 -12 51 -25 64c-7 7 -18 13 -34 19c-31 13 -49 19 -100 31c-49 12 -73 19 -113 39c-56 29 -85 73 -89 157c0 103 65 180 177 193v94h80v-96c89 -15 148 -73 176 -146z" />
    <glyph glyph-name="percent" unicode="%" 
d="M59 434c-31 31 -46 69 -46 114s15 82 46 113s69 47 114 47s83 -16 114 -47s46 -68 46 -113s-15 -83 -46 -114s-69 -46 -114 -46s-83 15 -114 46zM109 612c-15 -17 -23 -38 -23 -64s8 -48 23 -65c16 -17 37 -25 64 -25s48 8 63 25c16 17 24 39 24 65s-8 47 -24 64
c-15 17 -36 26 -63 26s-48 -9 -64 -26zM333 38c-31 31 -46 69 -46 114s15 82 46 113s69 47 114 47s83 -16 114 -47s46 -68 46 -113s-15 -83 -46 -114s-69 -46 -114 -46s-83 15 -114 46zM383 216c-15 -17 -23 -38 -23 -64s8 -48 23 -65c16 -17 37 -25 64 -25s48 8 63 25
c16 17 24 39 24 65s-8 47 -24 64c-15 17 -36 26 -63 26s-48 -9 -64 -26zM40 199l507 353l34 -48l-507 -353z" />
    <glyph glyph-name="ampersand" unicode="&#x26;" 
d="M265 -8c-128 0 -212 79 -212 208c0 97 60 174 136 213c-41 55 -61 104 -61 146c0 43 15 79 44 107c30 28 67 42 111 42c47 0 84 -14 113 -42s43 -61 43 -98c0 -27 -8 -56 -25 -85c-19 -32 -56 -62 -111 -91l146 -185c13 27 29 67 47 119l56 -61c-15 -46 -33 -87 -52 -123
l112 -142h-101l-59 74c-48 -55 -110 -82 -187 -82zM265 68c56 0 102 22 139 67l-172 221c-63 -36 -95 -89 -95 -158c0 -80 57 -130 128 -130zM208 555c0 -30 16 -66 49 -109c67 33 103 66 103 117c0 41 -32 73 -77 73s-75 -34 -75 -81z" />
    <glyph glyph-name="quotesingle" unicode="'" 
d="M342 462h-64l-25 246h114z" />
    <glyph glyph-name="parenleft" unicode="(" 
d="M344 750h84c-71 -112 -106 -245 -106 -400s35 -288 106 -400h-84c-72 113 -108 247 -108 400s36 287 108 400z" />
    <glyph glyph-name="parenright" unicode=")" 
d="M196 750h84c72 -113 108 -247 108 -400s-36 -287 -108 -400h-84c71 112 106 245 106 400s-35 288 -106 400z" />
    <glyph glyph-name="asterisk" unicode="*" 
d="M276 708h68v-138l131 43l21 -65l-130 -43l80 -111l-55 -39l-81 111l-81 -111l-55 39l80 111l-130 43l21 65l131 -43v138z" />
    <glyph glyph-name="plus" unicode="+" 
d="M273 356v183h74v-183h183v-74h-183v-183h-74v183h-183v74h183z" />
    <glyph glyph-name="comma" unicode="," 
d="M271 -107h-73l96 217h123z" />
    <glyph glyph-name="hyphen" unicode="-" 
d="M485 280h-349v74h349v-74z" />
    <glyph glyph-name="period" unicode="." 
d="M253 19c-31 31 -31 83 0 114s83 31 114 0s31 -83 0 -114s-83 -31 -114 0z" />
    <glyph glyph-name="slash" unicode="/" 
d="M62 -50l406 800h86l-406 -800h-86z" />
    <glyph glyph-name="zero" unicode="0" 
d="M498 88c-45 -64 -107 -96 -188 -96s-144 32 -189 96c-45 65 -67 152 -67 262s22 197 67 261c45 65 108 97 189 97s143 -32 188 -97c45 -64 68 -151 68 -261s-23 -197 -68 -262zM142 350c0 -77 12 -141 37 -190l208 445c-23 15 -48 23 -77 23c-107 0 -168 -106 -168 -278z
M310 72c107 0 168 106 168 278c0 79 -12 142 -37 190l-208 -445c23 -15 48 -23 77 -23z" />
    <glyph glyph-name="one" unicode="1" 
d="M122 562l227 138h32v-624h180v-76h-444v76h180v498l-175 -104v92z" />
    <glyph glyph-name="two" unicode="2" 
d="M551 0h-432v39l276 342c44 55 57 88 57 133c0 33 -9 59 -26 80c-19 23 -47 34 -84 34c-65 0 -112 -51 -123 -127l-85 16c5 55 28 100 68 136c40 37 87 55 140 55c65 0 116 -20 152 -61c29 -33 44 -78 44 -133c0 -54 -19 -105 -56 -152l-226 -282h295v-80z" />
    <glyph glyph-name="three" unicode="3" 
d="M80 192l84 11c13 -87 59 -131 139 -131c84 0 140 55 140 148c0 95 -55 148 -140 148c-23 0 -44 -4 -62 -13l-35 47l159 218h-252v80h380v-27l-178 -241c6 2 15 3 28 3c54 0 98 -20 133 -60c35 -39 53 -91 53 -155c0 -67 -21 -122 -63 -165c-42 -42 -96 -63 -163 -63
c-59 0 -109 18 -151 55s-66 85 -72 145z" />
    <glyph glyph-name="four" unicode="4" 
d="M452 0h-86v149h-304v35l296 516h94v-471h106v-80h-106v-149zM366 568l-190 -339h190v339z" />
    <glyph glyph-name="five" unicode="5" 
d="M95 183l85 16c12 -83 63 -127 135 -127c85 0 142 63 142 156c0 95 -50 156 -134 156c-63 0 -122 -33 -157 -78l-55 12l40 382h342v-80h-269l-26 -203c28 27 84 47 131 47c133 0 214 -91 214 -236c0 -69 -21 -126 -64 -170c-42 -44 -97 -66 -164 -66
c-119 0 -208 68 -220 191z" />
    <glyph glyph-name="six" unicode="6" 
d="M329 448c64 0 116 -21 156 -64c41 -42 61 -97 61 -164c0 -65 -21 -119 -63 -163c-41 -43 -94 -65 -158 -65s-117 22 -159 65c-41 44 -62 98 -62 163c0 47 12 90 36 131l207 357h96l-152 -267c10 5 23 7 38 7zM192 220c0 -85 56 -148 133 -148s133 63 133 148
c0 89 -54 148 -133 148s-133 -59 -133 -148z" />
    <glyph glyph-name="seven" unicode="7" 
d="M556 663l-312 -663h-93l295 620h-339v80h449v-37z" />
    <glyph glyph-name="eight" unicode="8" 
d="M503 521c0 -59 -33 -119 -80 -144c64 -29 104 -92 104 -176c0 -64 -21 -115 -63 -153c-42 -37 -93 -56 -154 -56s-112 19 -154 56c-42 38 -63 89 -63 153c0 84 40 147 104 176c-47 25 -80 85 -80 144c0 53 18 97 54 133c37 36 83 54 139 54s102 -18 138 -54
c37 -36 55 -80 55 -133zM403 295c-24 23 -55 35 -93 35s-69 -12 -93 -35s-36 -55 -36 -94s12 -71 36 -94s55 -35 93 -35s69 12 93 35s36 55 36 94s-12 71 -36 94zM388 601c-19 21 -45 31 -78 31s-59 -10 -78 -31s-29 -47 -29 -80s10 -59 29 -80s45 -31 78 -31s59 10 78 31
s29 47 29 80s-10 59 -29 80z" />
    <glyph glyph-name="nine" unicode="9" 
d="M299 252c-64 0 -116 21 -157 63c-40 43 -60 98 -60 165c0 65 21 119 62 162c42 44 95 66 159 66s117 -22 158 -66c42 -43 63 -97 63 -162c0 -47 -12 -90 -36 -131l-207 -357h-96l152 267c-10 -5 -23 -7 -38 -7zM436 480c0 85 -56 148 -133 148s-133 -63 -133 -148
c0 -89 54 -148 133 -148s133 59 133 148z" />
    <glyph glyph-name="colon" unicode=":" 
d="M253 19c-31 31 -31 83 0 114s83 31 114 0s31 -83 0 -114s-83 -31 -114 0zM253 361c-31 31 -31 83 0 114s83 31 114 0s31 -83 0 -114s-83 -31 -114 0z" />
    <glyph glyph-name="semicolon" unicode=";" 
d="M234 -107h-73l96 217h123zM253 361c-31 31 -31 83 0 114s83 31 114 0s31 -83 0 -114s-83 -31 -114 0z" />
    <glyph glyph-name="less" unicode="&#x3c;" 
d="M507 70l-409 196v88l409 196v-87l-325 -153l325 -153v-87z" />
    <glyph glyph-name="equal" unicode="=" 
d="M510 356h-399v74h399v-74zM510 190h-399v74h399v-74z" />
    <glyph glyph-name="greater" unicode="&#x3e;" 
d="M113 550l409 -196v-88l-409 -196v87l325 153l-325 153v87z" />
    <glyph glyph-name="question" unicode="?" 
d="M247 63c0 39 29 68 66 68c39 0 68 -29 68 -68c0 -37 -29 -66 -68 -66c-37 0 -66 29 -66 66zM382 330l65 -23c-24 -70 -69 -105 -134 -105c-80 0 -132 48 -132 124c0 55 28 97 85 126c29 16 72 30 92 41c29 15 43 39 43 71c0 23 -7 40 -21 52c-16 14 -38 21 -65 21
c-51 0 -89 -36 -105 -92l-78 13c16 91 83 150 183 150c51 0 93 -15 124 -44s46 -64 46 -105c0 -54 -26 -94 -77 -119l-101 -49c-33 -18 -49 -41 -49 -69c0 -32 20 -51 52 -51c31 0 55 20 72 59z" />
    <glyph glyph-name="at" unicode="@" 
d="M579 491v-384h-78l-8 44c-26 -35 -62 -52 -108 -52c-54 0 -98 19 -131 58s-49 88 -49 147c0 60 16 109 49 147s76 57 131 57c51 0 90 -15 117 -44v21c0 100 -66 161 -167 161c-127 0 -209 -115 -209 -328v-34c0 -195 77 -307 224 -307c71 0 131 24 179 72l39 -61
c-56 -55 -129 -82 -218 -82c-196 0 -308 136 -308 376v39c0 256 106 397 293 397c151 0 244 -80 244 -227zM287 304c0 -77 41 -131 106 -131s106 54 106 131c0 79 -39 130 -106 130s-106 -51 -106 -130z" />
    <glyph glyph-name="A" unicode="A" 
d="M19 0l249 700h84l249 -700h-91l-63 187h-274l-63 -187h-91zM418 271l-108 315l-108 -315h216z" />
    <glyph glyph-name="B" unicode="B" 
d="M96 0v700h246c125 0 199 -65 199 -180c0 -60 -33 -112 -80 -137c69 -28 115 -91 115 -175c0 -129 -82 -208 -218 -208h-262zM345 331h-161v-247h161c93 0 140 41 140 124c0 82 -47 123 -140 123zM340 616h-156v-201h156c68 0 110 35 110 100c0 67 -43 101 -110 101z" />
    <glyph glyph-name="C" unicode="C" 
d="M506 230l83 -25c-32 -129 -120 -213 -251 -213c-84 0 -153 31 -208 92c-54 61 -81 150 -81 266s27 205 81 266c55 61 124 92 208 92c131 0 219 -84 251 -213l-83 -25c-32 104 -81 154 -168 154c-124 0 -198 -89 -198 -274s74 -274 198 -274c87 0 136 50 168 154z" />
    <glyph glyph-name="D" unicode="D" 
d="M78 0v700h177c95 0 170 -30 226 -89c57 -59 85 -146 85 -261s-28 -202 -85 -261c-56 -59 -131 -89 -226 -89h-177zM246 616h-80v-532h80c147 0 226 78 226 266s-79 266 -226 266z" />
    <glyph glyph-name="E" unicode="E" 
d="M91 0v700h444v-84h-356v-201h306v-84h-306v-247h366v-84h-454z" />
    <glyph glyph-name="F" unicode="F" 
d="M91 0v700h437v-84h-349v-209h300v-84h-300v-323h-88z" />
    <glyph glyph-name="G" unicode="G" 
d="M581 0h-73l-5 94c-31 -67 -99 -102 -176 -102c-81 0 -148 31 -202 92c-54 62 -81 151 -81 266c0 116 27 205 81 266c55 61 124 92 208 92c132 0 219 -82 251 -213l-83 -25c-32 104 -81 154 -168 154c-124 0 -198 -89 -198 -274s74 -274 198 -274c95 0 148 64 157 193
h-157v84h248v-353z" />
    <glyph glyph-name="H" unicode="H" 
d="M464 414v286h88v-700h-88v330h-308v-330h-88v700h88v-286h308z" />
    <glyph glyph-name="I" unicode="I" 
d="M523 76v-76h-426v76h169v548h-169v76h426v-76h-169v-548h169z" />
    <glyph glyph-name="J" unicode="J" 
d="M418 222v478h88v-476c0 -75 -20 -133 -60 -173c-40 -39 -92 -59 -155 -59c-61 0 -110 18 -148 54s-61 81 -70 136l89 19c16 -79 61 -125 129 -125c79 0 127 47 127 146z" />
    <glyph glyph-name="K" unicode="K" 
d="M267 385l324 -385h-112l-293 351v-351h-88v700h88v-281l268 281h115z" />
    <glyph glyph-name="L" unicode="L" 
d="M578 84v-84h-445v700h88v-616h357z" />
    <glyph glyph-name="M" unicode="M" 
d="M67 0v700h94l149 -388l149 388h94v-700h-88v513l-122 -312h-66l-122 312v-513h-88z" />
    <glyph glyph-name="N" unicode="N" 
d="M460 160v540h88v-700h-96l-293 540v-540h-88v700h96z" />
    <glyph glyph-name="O" unicode="O" 
d="M114 615c51 62 116 93 196 93s145 -31 196 -93c51 -61 76 -150 76 -265s-25 -204 -76 -266c-51 -61 -116 -92 -196 -92s-145 31 -196 92c-51 62 -76 151 -76 266s25 204 76 265zM442 557c-33 45 -77 67 -132 67s-99 -22 -132 -67c-33 -44 -49 -113 -49 -207
s16 -163 49 -208c33 -44 77 -66 132 -66s99 22 132 66c33 45 49 114 49 208s-16 163 -49 207z" />
    <glyph glyph-name="P" unicode="P" 
d="M364 300h-177v-300h-88v700h265c133 0 208 -76 208 -200s-75 -200 -208 -200zM187 384h175c79 0 119 39 119 116s-40 116 -119 116h-175v-232z" />
    <glyph glyph-name="Q" unicode="Q" 
d="M582 350c0 -93 -17 -170 -52 -230l65 -65l-61 -63l-60 60c-45 -40 -100 -60 -164 -60c-80 0 -145 31 -196 92c-51 62 -76 151 -76 266s25 204 76 265c51 62 116 93 196 93s145 -31 196 -93c51 -61 76 -150 76 -265zM414 112l-72 74l61 63l62 -63c17 45 26 99 26 164
c0 94 -16 163 -49 207c-33 45 -77 67 -132 67s-99 -22 -132 -67c-33 -44 -49 -113 -49 -207c0 -188 70 -274 181 -274c41 0 76 12 104 36z" />
    <glyph glyph-name="R" unicode="R" 
d="M594 0h-104l-205 330h-117v-330h-88v700h245c128 0 206 -64 206 -185c0 -99 -49 -159 -146 -179zM327 616h-159v-202h159c75 0 113 34 113 101s-38 101 -113 101z" />
    <glyph glyph-name="S" unicode="S" 
d="M536 558l-77 -39c-31 70 -78 105 -142 105c-77 0 -126 -40 -126 -108c0 -34 13 -59 38 -74c26 -15 67 -30 124 -45c51 -13 78 -21 115 -41c55 -28 81 -68 84 -141c0 -148 -91 -223 -232 -223c-135 0 -234 73 -261 208l82 32c27 -104 87 -156 179 -156
c88 0 144 44 144 127c0 29 -12 51 -25 64c-7 7 -18 13 -34 19c-31 13 -49 19 -100 31c-49 12 -73 19 -113 39c-56 29 -85 73 -89 157c0 57 19 104 57 140c38 37 90 55 157 55c113 0 187 -65 219 -150z" />
    <glyph glyph-name="T" unicode="T" 
d="M266 616h-218v84h524v-84h-218v-616h-88v616z" />
    <glyph glyph-name="U" unicode="U" 
d="M62 243v457h88v-463c0 -96 59 -161 160 -161s160 65 160 161v463h88v-457c0 -78 -23 -139 -70 -184s-106 -67 -178 -67s-131 22 -178 67s-70 106 -70 184z" />
    <glyph glyph-name="V" unicode="V" 
d="M310 125l196 575h91l-245 -700h-84l-245 700h91z" />
    <glyph glyph-name="W" unicode="W" 
d="M456 130l42 570h91l-67 -700h-109l-103 411l-103 -411h-109l-67 700h91l42 -570l106 427h80z" />
    <glyph glyph-name="X" unicode="X" 
d="M260 376l-190 324h101l139 -238l139 238h101l-190 -324l221 -376h-101l-170 290l-170 -290h-101z" />
    <glyph glyph-name="Y" unicode="Y" 
d="M266 0v276l-225 424h97l172 -336l172 336h97l-225 -424v-276h-88z" />
    <glyph glyph-name="Z" unicode="Z" 
d="M416 616h-329v84h456v-42l-343 -574h354v-84h-481v42z" />
    <glyph glyph-name="bracketleft" unicode="[" 
d="M473 -50h-268v800h268v-76h-188v-648h188v-76z" />
    <glyph glyph-name="backslash" unicode="\" 
d="M473 -50l-406 800h86l406 -800h-86z" />
    <glyph glyph-name="bracketright" unicode="]" 
d="M147 750h268v-800h-268v76h188v648h-188v76z" />
    <glyph glyph-name="asciicircum" unicode="^" 
d="M90 421l187 279h66l187 -279h-86l-134 203l-134 -203h-86z" />
    <glyph glyph-name="underscore" unicode="_" 
d="M550 -80h-480v80h480v-80z" />
    <glyph glyph-name="grave" unicode="`" 
d="M215 704h121l67 -144h-66z" />
    <glyph glyph-name="a" unicode="a" 
d="M197 145c0 -48 32 -77 83 -77c40 0 77 13 110 38c34 26 51 65 51 116v16h-110c-85 0 -134 -36 -134 -93zM525 318v-318h-68l-12 71c-32 -47 -103 -79 -178 -79c-89 0 -156 54 -156 153c0 109 85 165 228 165h102v22c0 73 -48 104 -116 104c-57 0 -103 -35 -119 -86
l-74 20c23 87 100 142 193 142c124 0 200 -61 200 -194z" />
    <glyph glyph-name="b" unicode="b" 
d="M338 -8c-65 0 -123 32 -154 75v-67h-84v708h84v-268c31 41 87 72 154 72c145 0 231 -103 231 -260s-86 -260 -231 -260zM442 119c27 34 41 78 41 133s-14 99 -41 133s-65 51 -112 51s-85 -17 -112 -51s-41 -78 -41 -133s14 -99 41 -133s65 -51 112 -51s85 17 112 51z" />
    <glyph glyph-name="c" unicode="c" 
d="M470 161l73 -30c-41 -93 -112 -139 -213 -139c-74 0 -133 25 -176 76s-65 112 -65 184s22 133 65 184s102 76 176 76c101 0 172 -46 213 -139l-73 -30c-27 62 -73 93 -140 93c-97 0 -155 -76 -155 -184s58 -184 155 -184c67 0 113 31 140 93z" />
    <glyph glyph-name="d" unicode="d" 
d="M301 512c67 0 123 -31 154 -72v268h84v-708h-84v67c-31 -43 -89 -75 -154 -75c-145 0 -231 103 -231 260s86 260 231 260zM197 385c-27 -34 -41 -78 -41 -133s14 -99 41 -133s65 -51 112 -51s85 17 112 51s41 78 41 133s-14 99 -41 133s-65 51 -112 51s-85 -17 -112 -51z
" />
    <glyph glyph-name="e" unicode="e" 
d="M556 269v-35h-394c5 -100 66 -166 155 -166c72 0 126 33 162 100l67 -35c-49 -94 -125 -141 -229 -141c-72 0 -130 25 -175 74c-44 49 -66 111 -66 186c0 73 22 135 65 185c44 50 103 75 176 75c75 0 134 -23 176 -70c42 -46 63 -104 63 -173zM317 436
c-79 0 -132 -47 -149 -126h299c-15 80 -69 126 -150 126z" />
    <glyph glyph-name="f" unicode="f" 
d="M497 679l-21 -74c-28 18 -55 27 -81 27c-49 0 -74 -32 -74 -95v-33h196v-76h-196v-428h-84v428h-142v76h142v31c0 115 52 173 155 173c38 0 73 -10 105 -29z" />
    <glyph glyph-name="g" unicode="g" 
d="M142 343c0 51 17 92 50 123c34 31 77 46 128 46c36 0 69 -9 99 -26l105 54l38 -69l-85 -44c14 -24 21 -52 21 -84c0 -51 -17 -92 -50 -123s-76 -46 -128 -46c-35 0 -66 7 -93 21c-31 -12 -46 -29 -46 -52c0 -28 24 -42 71 -42h131c108 0 169 -48 169 -139
c0 -59 -23 -102 -69 -131s-102 -43 -167 -43c-147 0 -233 58 -233 166c0 45 17 81 52 108c-24 19 -36 44 -36 77c0 45 27 84 74 101c-21 28 -31 62 -31 103zM381 29h-119c-21 0 -38 1 -52 4c-29 -15 -43 -40 -43 -76c0 -59 58 -95 149 -95c95 0 150 35 150 92
c0 50 -28 75 -85 75zM251 414c-18 -17 -27 -41 -27 -71s9 -54 27 -71c19 -17 42 -26 69 -26s50 8 68 25c19 17 28 41 28 72s-9 54 -28 71c-18 17 -41 26 -68 26s-50 -9 -69 -26z" />
    <glyph glyph-name="h" unicode="h" 
d="M529 348v-348h-84v330c0 71 -31 106 -93 106c-43 0 -80 -20 -112 -61s-48 -95 -48 -164v-211h-84v708h84v-297c40 59 108 101 183 101c103 0 154 -55 154 -164z" />
    <glyph glyph-name="i" unicode="i" 
d="M283 430h-154v74h238v-430h186v-74h-444v74h174v356zM250 638c0 39 30 70 69 70s69 -31 69 -70s-30 -68 -69 -68s-69 31 -69 68z" />
    <glyph glyph-name="j" unicode="j" 
d="M241 -212l-28 80c96 32 135 83 135 182v380h-198v74h282v-476c0 -67 -19 -121 -56 -160c-37 -40 -82 -67 -135 -80zM315 638c0 39 30 70 69 70s69 -31 69 -70s-30 -68 -69 -68s-69 31 -69 68z" />
    <glyph glyph-name="k" unicode="k" 
d="M111 0v708h84v-415l215 211h110l-235 -231l258 -273h-110l-238 253v-253h-84z" />
    <glyph glyph-name="l" unicode="l" 
d="M201 190v434h-139v76h223v-510c0 -81 35 -122 106 -122c65 0 104 41 117 122l76 -15c-17 -120 -88 -183 -193 -183c-117 0 -190 73 -190 198z" />
    <glyph glyph-name="m" unicode="m" 
d="M588 376v-376h-84v358c0 55 -16 77 -55 77c-52 0 -89 -65 -89 -198v-237h-84v358c0 55 -16 77 -55 77c-52 0 -89 -65 -89 -198v-237h-84v504h84v-64c30 48 69 72 118 72c54 0 89 -27 104 -82c27 49 72 82 124 82c67 0 110 -44 110 -136z" />
    <glyph glyph-name="n" unicode="n" 
d="M522 351v-351h-84v333c0 69 -31 103 -93 103c-41 0 -76 -21 -105 -64c-29 -42 -43 -98 -43 -169v-203h-84v504h84v-93c37 60 102 101 171 101c103 0 154 -61 154 -161z" />
    <glyph glyph-name="o" unicode="o" 
d="M130 68c-45 51 -68 112 -68 184s23 133 68 184s105 76 180 76s135 -25 180 -76s68 -112 68 -184s-23 -133 -68 -184s-105 -76 -180 -76s-135 25 -180 76zM192 382c-29 -36 -44 -79 -44 -130s15 -94 44 -130s69 -54 118 -54s89 18 118 54s44 79 44 130s-15 94 -44 130
s-69 54 -118 54s-89 -18 -118 -54z" />
    <glyph glyph-name="p" unicode="p" 
d="M342 -8c-67 0 -123 31 -154 72v-268h-84v708h84v-67c31 43 89 75 154 75c145 0 231 -103 231 -260s-86 -260 -231 -260zM446 119c27 34 41 78 41 133s-14 99 -41 133s-65 51 -112 51s-85 -17 -112 -51s-41 -78 -41 -133s14 -99 41 -133s65 -51 112 -51s85 17 112 51z" />
    <glyph glyph-name="q" unicode="q" 
d="M288 512c65 0 123 -32 154 -75v67h84v-708h-84v268c-31 -41 -87 -72 -154 -72c-145 0 -231 103 -231 260s86 260 231 260zM184 385c-27 -34 -41 -78 -41 -133s14 -99 41 -133s65 -51 112 -51s85 17 112 51s41 78 41 133s-14 99 -41 133s-65 51 -112 51s-85 -17 -112 -51z
" />
    <glyph glyph-name="r" unicode="r" 
d="M559 344h-84c-7 61 -40 92 -97 92c-47 0 -88 -22 -121 -67c-33 -44 -50 -106 -50 -187v-182h-84v504h84v-93c43 67 105 101 186 101c100 0 161 -60 166 -168z" />
    <glyph glyph-name="s" unicode="s" 
d="M308 512c83 0 144 -36 184 -109l-66 -47c-29 53 -70 80 -121 80c-48 0 -87 -22 -87 -67c0 -41 37 -62 117 -78c43 -9 70 -15 103 -30c47 -20 78 -54 78 -107c0 -50 -19 -90 -56 -119s-83 -43 -138 -43c-104 0 -188 53 -219 146l80 30c23 -63 71 -100 139 -100
c61 0 107 27 107 78c0 40 -38 54 -130 74c-103 21 -163 57 -163 146c0 44 17 79 50 106s74 40 122 40z" />
    <glyph glyph-name="t" unicode="t" 
d="M200 428h-134v76h134v151l84 53v-204h246v-76h-246v-258c0 -68 29 -102 87 -102c45 0 86 20 124 60l31 -71c-43 -43 -95 -65 -155 -65c-111 0 -171 59 -171 175v261z" />
    <glyph glyph-name="u" unicode="u" 
d="M103 153v351h84v-333c0 -69 31 -103 93 -103c41 0 76 21 105 63c29 43 43 99 43 170v203h84v-504h-84v93c-37 -60 -102 -101 -171 -101c-103 0 -154 61 -154 161z" />
    <glyph glyph-name="v" unicode="v" 
d="M310 100l162 404h91l-211 -504h-84l-211 504h91z" />
    <glyph glyph-name="w" unicode="w" 
d="M438 131l69 373h86l-110 -504h-76l-97 354l-97 -354h-76l-110 504h86l69 -373l86 323h84z" />
    <glyph glyph-name="x" unicode="x" 
d="M310 337l111 167h99l-164 -237l183 -267h-95l-134 198l-134 -198h-95l183 267l-164 237h99z" />
    <glyph glyph-name="y" unicode="y" 
d="M335 135l149 369h91l-299 -708h-84l98 238l-218 470h94z" />
    <glyph glyph-name="z" unicode="z" 
d="M374 428h-251v76h378v-36l-267 -392h279v-76h-403v36z" />
    <glyph glyph-name="braceleft" unicode="{" 
d="M265 50v172c0 67 -35 90 -100 90v76c65 0 100 23 100 90v172c0 60 40 100 100 100h138v-76h-113c-32 0 -45 -13 -45 -45v-181c0 -63 -25 -86 -70 -98c45 -12 70 -35 70 -98v-181c0 -32 13 -45 45 -45h113v-76h-138c-60 0 -100 40 -100 100z" />
    <glyph glyph-name="bar" unicode="|" 
d="M270 -50v800h80v-800h-80z" />
    <glyph glyph-name="braceright" unicode="}" 
d="M355 222v-172c0 -60 -40 -100 -100 -100h-138v76h113c32 0 45 13 45 45v181c0 63 25 86 70 98c-45 12 -70 35 -70 98v181c0 32 -13 45 -45 45h-113v76h138c60 0 100 -40 100 -100v-172c0 -67 35 -90 100 -90v-76c-65 0 -100 -23 -100 -90z" />
    <glyph glyph-name="asciitilde" unicode="~" 
d="M125 268l-49 51c29 55 77 88 132 88c29 0 63 -8 102 -25s69 -25 92 -25c37 0 68 15 93 45l49 -51c-29 -55 -77 -88 -132 -88c-29 0 -63 8 -102 25s-69 25 -92 25c-37 0 -68 -15 -93 -45z" />
    <glyph glyph-name="uni00A0" unicode="&#xa0;" 
 />
    <glyph glyph-name="exclamdown" unicode="&#xa1;" 
d="M343 296l24 -500h-114l24 500h66zM240 431c0 39 30 68 70 68s70 -29 70 -68c0 -40 -30 -71 -70 -71s-70 31 -70 71z" />
    <glyph glyph-name="cent" unicode="&#xa2;" 
d="M464 259l73 -30c-35 -81 -93 -126 -173 -137v-142h-80v143c-63 9 -112 38 -148 86c-35 49 -53 106 -53 171s18 121 53 169c36 49 85 78 148 88v143h80v-143c79 -10 137 -55 173 -136l-73 -30c-27 62 -73 93 -140 93c-97 0 -155 -76 -155 -184s58 -184 155 -184
c67 0 113 31 140 93z" />
    <glyph glyph-name="sterling" unicode="&#xa3;" 
d="M192 324h-80v80h53c-15 40 -22 74 -22 103c0 61 19 110 56 146c37 37 84 55 141 55c96 0 164 -50 196 -138l-75 -35c-29 67 -65 93 -121 93c-64 0 -113 -42 -113 -122c0 -32 7 -66 20 -102h164v-80h-138c5 -21 7 -42 7 -63c0 -67 -26 -126 -79 -177c30 18 59 27 87 27
c20 0 42 -7 67 -20s43 -19 56 -19c36 0 59 16 90 68l66 -36c-40 -75 -90 -112 -151 -112c-28 0 -57 7 -87 20c-29 13 -52 20 -67 20c-39 0 -77 -13 -113 -40l-57 62c79 75 111 130 111 197c0 21 -4 45 -11 73z" />
    <glyph glyph-name="currency" unicode="&#xa4;" 
d="M147 422l-88 67l69 69l67 -87c68 51 162 51 230 0l67 87l69 -69l-88 -67c47 -68 47 -162 0 -230l88 -67l-69 -69l-67 87c-68 -51 -162 -51 -230 0l-67 -87l-69 69l88 67c-47 68 -47 162 0 230zM225 398c-21 -23 -32 -54 -32 -91s11 -68 32 -91s50 -35 85 -35s64 12 85 35
s32 54 32 91s-11 68 -32 91s-50 35 -85 35s-64 -12 -85 -35z" />
    <glyph glyph-name="yen" unicode="&#xa5;" 
d="M266 116h-156v72h156v88h-156v72h118l-183 352h97l168 -336l168 336h97l-183 -352h118v-72h-156v-88h156v-72h-156v-116h-88v116z" />
    <glyph glyph-name="brokenbar" unicode="&#xa6;" 
d="M270 -50v349h80v-349h-80zM350 750v-349h-80v349h80z" />
    <glyph glyph-name="section" unicode="&#xa7;" 
d="M534 222c0 -56 -23 -101 -70 -136c29 -31 43 -68 43 -112c0 -57 -18 -103 -53 -136s-81 -50 -136 -50c-108 0 -180 59 -204 158l77 25c25 -69 67 -103 127 -103c64 0 105 38 105 102c0 35 -13 61 -44 81c-15 11 -29 19 -44 26c-14 7 -34 15 -59 26s-46 21 -62 29
c-80 41 -112 78 -112 142c0 56 23 101 70 136c-29 31 -43 68 -43 112c0 57 18 103 53 136s81 50 136 50c108 0 180 -59 204 -158l-77 -25c-25 69 -67 103 -127 103c-64 0 -105 -38 -105 -102c0 -35 14 -61 43 -82c15 -10 30 -18 44 -25l60 -27c25 -11 46 -20 62 -28
c80 -41 112 -78 112 -142zM455 213c0 37 -36 70 -75 87c-19 9 -44 19 -74 32s-53 24 -70 33c-37 -23 -55 -50 -55 -82c0 -37 36 -70 75 -87c19 -9 44 -19 74 -32s53 -24 70 -33c37 23 55 50 55 82z" />
    <glyph glyph-name="dieresis" unicode="&#xa8;" 
d="M217 708c33 0 57 -25 57 -57s-24 -56 -57 -56c-31 0 -56 24 -56 56s25 57 56 57zM401 708c33 0 57 -25 57 -57s-24 -56 -57 -56c-31 0 -56 24 -56 56s25 57 56 57z" />
    <glyph glyph-name="copyright" unicode="&#xa9;" 
d="M116 151c-51 53 -77 120 -77 199s26 145 77 198s116 80 194 80s143 -27 194 -80s77 -119 77 -198s-26 -146 -77 -199s-116 -79 -194 -79s-143 26 -194 79zM160 505c-38 -41 -57 -93 -57 -155s19 -114 57 -155c39 -41 89 -62 150 -62s111 21 149 62c39 41 58 93 58 155
s-19 114 -58 155c-38 41 -88 62 -149 62s-111 -21 -150 -62zM381 302l51 -12c-11 -57 -59 -92 -122 -92c-37 0 -70 13 -99 39c-28 26 -42 64 -42 113s14 87 42 113c29 26 62 39 99 39c63 0 111 -35 122 -92l-51 -12c-13 34 -37 51 -71 51c-49 0 -82 -32 -82 -99
s33 -99 82 -99c34 0 58 17 71 51z" />
    <glyph glyph-name="ordfeminine" unicode="&#xaa;" 
d="M215 415c0 -37 24 -59 65 -59c31 0 60 10 86 30c27 20 40 50 40 90v13h-87c-67 0 -104 -29 -104 -74zM472 551v-251h-54l-9 58c-25 -37 -81 -62 -140 -62c-71 0 -122 40 -122 119c0 84 68 130 179 130h80v17c0 57 -40 82 -95 82c-43 0 -77 -27 -90 -67l-57 15
c17 68 75 112 147 112c99 0 161 -49 161 -153z" />
    <glyph glyph-name="guillemotleft" unicode="&#xab;" 
d="M337 80l-294 199v62l294 199v-90l-209 -140l209 -140v-90zM577 80l-294 199v62l294 199v-90l-209 -140l209 -140v-90z" />
    <glyph glyph-name="logicalnot" unicode="&#xac;" 
d="M459 313h-366v76h450v-247h-84v171z" />
    <glyph glyph-name="uni00AD" unicode="&#xad;" 
d="M485 280h-349v74h349v-74z" />
    <glyph glyph-name="registered" unicode="&#xae;" 
d="M116 151c-51 53 -77 120 -77 199s26 145 77 198s116 80 194 80s143 -27 194 -80s77 -119 77 -198s-26 -146 -77 -199s-116 -79 -194 -79s-143 26 -194 79zM160 505c-38 -41 -57 -93 -57 -155s19 -114 57 -155c39 -41 89 -62 150 -62s111 21 149 62c39 41 58 93 58 155
s-19 114 -58 155c-38 41 -88 62 -149 62s-111 -21 -150 -62zM436 202h-59l-88 126h-24v-126h-52v296h106c60 0 94 -34 94 -85c0 -43 -27 -74 -66 -82zM316 449h-51v-72h51c29 0 43 12 43 36s-14 36 -43 36z" />
    <glyph glyph-name="overscore" unicode="&#xaf;" 
d="M435 632h-249v76h249v-76z" />
    <glyph glyph-name="degree" unicode="&#xb0;" 
d="M199 443c-29 29 -43 66 -43 110s14 80 43 109s66 44 111 44s82 -15 111 -44s43 -65 43 -109s-14 -81 -43 -110s-66 -43 -111 -43s-82 14 -111 43zM248 616c-15 -16 -23 -37 -23 -63s8 -47 23 -63s36 -24 62 -24s47 8 62 24s23 37 23 63s-8 47 -23 63s-36 24 -62 24
s-47 -8 -62 -24z" />
    <glyph glyph-name="plusminus" unicode="&#xb1;" 
d="M530 0h-440v74h440v-74zM273 436v183h74v-183h183v-74h-183v-183h-74v183h-183v74h183z" />
    <glyph glyph-name="uni00B2" unicode="&#xb2;" 
d="M261 602l-59 15c9 56 50 95 111 95c69 0 107 -40 107 -100c0 -33 -11 -64 -34 -91l-74 -93h116v-60h-225v25l126 155c17 21 25 42 25 63c0 24 -14 41 -41 41s-44 -17 -52 -50z" />
    <glyph glyph-name="uni00B3" unicode="&#xb3;" 
d="M203 467l64 15c4 -35 26 -58 57 -58c33 0 49 18 49 55c0 39 -16 58 -49 58c-11 0 -22 -4 -33 -13l-29 41l66 83h-107v60h202v-23l-84 -104c64 0 100 -39 100 -102c0 -71 -46 -115 -115 -115c-67 0 -116 42 -121 103z" />
    <glyph glyph-name="acute" unicode="&#xb4;" 
d="M283 560h-66l67 144h121z" />
    <glyph glyph-name="mu" unicode="&#xb5;" 
d="M190 -204h-84v708h84v-333c0 -69 31 -103 93 -103c41 0 76 21 105 63c29 43 43 99 43 170v203h84v-504h-84v93c-37 -60 -102 -101 -171 -101c-28 0 -51 4 -70 12v-208z" />
    <glyph glyph-name="mu" unicode="&#x3bc;" 
d="M190 -204h-84v708h84v-333c0 -69 31 -103 93 -103c41 0 76 21 105 63c29 43 43 99 43 170v203h84v-504h-84v93c-37 -60 -102 -101 -171 -101c-28 0 -51 4 -70 12v-208z" />
    <glyph glyph-name="paragraph" unicode="&#xb6;" 
d="M245 700h312v-76h-62v-828h-84v828h-82v-828h-84v518c-53 0 -99 19 -137 56c-37 38 -56 84 -56 137s19 99 56 136c38 38 84 57 137 57z" />
    <glyph glyph-name="middot" unicode="&#xb7;" 
d="M253 295c-31 31 -31 83 0 114s83 31 114 0s31 -83 0 -114s-83 -31 -114 0z" />
    <glyph glyph-name="cedilla" unicode="&#xb8;" 
d="M329 -60h70l-83 -175l-95 45z" />
    <glyph glyph-name="uni00B9" unicode="&#xb9;" 
d="M419 368h-220v56h79v195l-75 -34v71l113 52h24v-284h79v-56z" />
    <glyph glyph-name="ordmasculine" unicode="&#xba;" 
d="M168 355c-35 40 -53 88 -53 145s18 105 53 144c35 40 82 60 141 60s106 -20 141 -60c36 -39 54 -87 54 -144s-18 -105 -54 -145c-35 -39 -82 -59 -141 -59s-106 20 -141 59zM216 602c-23 -28 -34 -62 -34 -102s11 -74 34 -103c23 -28 54 -42 93 -42s69 14 92 42
c23 29 35 63 35 103s-12 74 -35 102s-53 42 -92 42s-70 -14 -93 -42z" />
    <glyph glyph-name="guillemotright" unicode="&#xbb;" horiz-adv-x="618" 
d="M281 540l294 -199v-62l-294 -199v90l209 140l-209 140v90zM41 540l294 -199v-62l-294 -199v90l209 140l-209 140v90z" />
    <glyph glyph-name="onequarter" unicode="&#xbc;" 
d="M525 -8h-62v61h-150v27l139 252h73v-219h50v-60h-50v-61zM463 244l-69 -131h69v131zM61 196l507 353l34 -48l-507 -353zM249 368h-220v56h79v195l-75 -34v71l113 52h24v-284h79v-56z" />
    <glyph glyph-name="onehalf" unicode="&#xbd;" 
d="M249 368h-220v56h79v195l-75 -34v71l113 52h24v-284h79v-56zM61 196l507 353l34 -48l-507 -353zM417 234l-59 15c9 56 50 95 111 95c69 0 107 -40 107 -100c0 -33 -11 -64 -34 -91l-74 -93h116v-60h-225v25l126 155c17 21 25 42 25 63c0 24 -14 41 -41 41
s-44 -17 -52 -50z" />
    <glyph glyph-name="threequarters" unicode="&#xbe;" 
d="M23 467l64 15c4 -35 26 -58 57 -58c33 0 49 18 49 55c0 39 -16 58 -49 58c-11 0 -22 -4 -33 -13l-29 41l66 83h-107v60h202v-23l-84 -104c64 0 100 -39 100 -102c0 -71 -46 -115 -115 -115c-67 0 -116 42 -121 103zM61 196l507 353l34 -48l-507 -353zM525 -8h-62v61h-150
v27l139 252h73v-219h50v-60h-50v-61zM463 244l-69 -131h69v131z" />
    <glyph glyph-name="questiondown" unicode="&#xbf;" 
d="M388 433c0 -39 -29 -68 -66 -68s-68 29 -68 68c0 37 29 66 68 66c37 0 66 -29 66 -66zM253 166l-65 23c24 70 69 105 134 105c80 0 132 -48 132 -124c0 -55 -28 -97 -85 -126c-29 -16 -72 -30 -92 -41c-29 -15 -43 -39 -43 -71c0 -23 7 -40 21 -52c16 -14 38 -21 65 -21
c51 0 89 36 105 92l78 -13c-16 -91 -83 -150 -183 -150c-51 0 -93 15 -124 44s-46 64 -46 105c0 54 26 94 77 119l101 49c33 18 49 41 49 69c0 32 -20 51 -52 51c-31 0 -55 -20 -72 -59z" />
    <glyph glyph-name="Agrave" unicode="&#xc0;" 
d="M19 0l249 700h84l249 -700h-91l-63 187h-274l-63 -187h-91zM418 271l-108 315l-108 -315h216zM175 900h121l67 -144h-66z" />
    <glyph glyph-name="Aacute" unicode="&#xc1;" 
d="M19 0l249 700h84l249 -700h-91l-63 187h-274l-63 -187h-91zM418 271l-108 315l-108 -315h216zM322 756h-66l67 144h121z" />
    <glyph glyph-name="Acircumflex" unicode="&#xc2;" 
d="M19 0l249 700h84l249 -700h-91l-63 187h-274l-63 -187h-91zM418 271l-108 315l-108 -315h216zM230 762h-87l154 164h26l154 -164h-87l-80 85z" />
    <glyph glyph-name="Atilde" unicode="&#xc3;" 
d="M19 0l249 700h84l249 -700h-91l-63 187h-274l-63 -187h-91zM418 271l-108 315l-108 -315h216zM183 782l-49 38c24 45 64 76 107 76c24 0 48 -7 72 -20s44 -20 59 -20c25 0 47 12 66 36l49 -39c-24 -44 -64 -75 -107 -75c-24 0 -48 7 -72 20s-44 20 -59 20
c-25 0 -47 -12 -66 -36z" />
    <glyph glyph-name="Adieresis" unicode="&#xc4;" 
d="M19 0l249 700h84l249 -700h-91l-63 187h-274l-63 -187h-91zM418 271l-108 315l-108 -315h216zM218 904c33 0 57 -25 57 -57s-24 -56 -57 -56c-31 0 -56 24 -56 56s25 57 56 57zM402 904c33 0 57 -25 57 -57s-24 -56 -57 -56c-31 0 -56 24 -56 56s25 57 56 57z" />
    <glyph glyph-name="Aring" unicode="&#xc5;" 
d="M19 0l249 700h84l249 -700h-91l-63 187h-274l-63 -187h-91zM418 271l-108 315l-108 -315h216zM211 849c0 56 43 100 99 100c57 0 99 -44 99 -100c0 -55 -42 -96 -99 -96c-56 0 -99 41 -99 96zM267 850c-5 -57 91 -57 86 0c5 60 -91 60 -86 0z" />
    <glyph glyph-name="AE" unicode="&#xc6;" 
d="M-11 0l194 700h392v-84h-206v-201h166v-84h-166v-247h216v-84h-304v187h-152l-52 -187h-88zM281 586h-47l-85 -315h132v315z" />
    <glyph glyph-name="Ccedilla" unicode="&#xc7;" 
d="M506 230l83 -25c-32 -129 -120 -213 -251 -213c-84 0 -153 31 -208 92c-54 61 -81 150 -81 266s27 205 81 266c55 61 124 92 208 92c131 0 219 -84 251 -213l-83 -25c-32 104 -81 154 -168 154c-124 0 -198 -89 -198 -274s74 -274 198 -274c87 0 136 50 168 154zM322 -60
h70l-83 -175l-95 45z" />
    <glyph glyph-name="Egrave" unicode="&#xc8;" 
d="M91 0v700h444v-84h-356v-201h306v-84h-306v-247h366v-84h-454zM193 900h121l67 -144h-66z" />
    <glyph glyph-name="Eacute" unicode="&#xc9;" 
d="M91 0v700h444v-84h-356v-201h306v-84h-306v-247h366v-84h-454zM312 756h-66l67 144h121z" />
    <glyph glyph-name="Ecircumflex" unicode="&#xca;" 
d="M91 0v700h444v-84h-356v-201h306v-84h-306v-247h366v-84h-454zM230 762h-87l154 164h26l154 -164h-87l-80 85z" />
    <glyph glyph-name="Edieresis" unicode="&#xcb;" 
d="M91 0v700h444v-84h-356v-201h306v-84h-306v-247h366v-84h-454zM222 904c33 0 57 -25 57 -57s-24 -56 -57 -56c-31 0 -56 24 -56 56s25 57 56 57zM406 904c33 0 57 -25 57 -57s-24 -56 -57 -56c-31 0 -56 24 -56 56s25 57 56 57z" />
    <glyph glyph-name="Igrave" unicode="&#xcc;" 
d="M523 76v-76h-426v76h169v548h-169v76h426v-76h-169v-548h169zM205 900h121l67 -144h-66z" />
    <glyph glyph-name="Iacute" unicode="&#xcd;" 
d="M523 76v-76h-426v76h169v548h-169v76h426v-76h-169v-548h169zM292 756h-66l67 144h121z" />
    <glyph glyph-name="Icircumflex" unicode="&#xce;" 
d="M523 76v-76h-426v76h169v548h-169v76h426v-76h-169v-548h169zM231 762h-87l154 164h26l154 -164h-87l-80 85z" />
    <glyph glyph-name="Idieresis" unicode="&#xcf;" 
d="M523 76v-76h-426v76h169v548h-169v76h426v-76h-169v-548h169zM219 904c33 0 57 -25 57 -57s-24 -56 -57 -56c-31 0 -56 24 -56 56s25 57 56 57zM403 904c33 0 57 -25 57 -57s-24 -56 -57 -56c-31 0 -56 24 -56 56s25 57 56 57z" />
    <glyph glyph-name="Eth" unicode="&#xd0;" 
d="M75 308h-49v84h49v308h189c95 0 170 -30 226 -89c57 -59 85 -146 85 -261s-28 -202 -85 -261c-56 -59 -131 -89 -226 -89h-189v308zM255 616h-92v-224h109v-84h-109v-224h92c147 0 226 78 226 266s-79 266 -226 266z" />
    <glyph glyph-name="Ntilde" unicode="&#xd1;" 
d="M460 160v540h88v-700h-96l-293 540v-540h-88v700h96zM186 782l-49 38c24 45 64 76 107 76c24 0 48 -7 72 -20s44 -20 59 -20c25 0 47 12 66 36l49 -39c-24 -44 -64 -75 -107 -75c-24 0 -48 7 -72 20s-44 20 -59 20c-25 0 -47 -12 -66 -36z" />
    <glyph glyph-name="Ograve" unicode="&#xd2;" 
d="M114 615c51 62 116 93 196 93s145 -31 196 -93c51 -61 76 -150 76 -265s-25 -204 -76 -266c-51 -61 -116 -92 -196 -92s-145 31 -196 92c-51 62 -76 151 -76 266s25 204 76 265zM442 557c-33 45 -77 67 -132 67s-99 -22 -132 -67c-33 -44 -49 -113 -49 -207
s16 -163 49 -208c33 -44 77 -66 132 -66s99 22 132 66c33 45 49 114 49 208s-16 163 -49 207zM187 900h121l67 -144h-66z" />
    <glyph glyph-name="Oacute" unicode="&#xd3;" 
d="M114 615c51 62 116 93 196 93s145 -31 196 -93c51 -61 76 -150 76 -265s-25 -204 -76 -266c-51 -61 -116 -92 -196 -92s-145 31 -196 92c-51 62 -76 151 -76 266s25 204 76 265zM442 557c-33 45 -77 67 -132 67s-99 -22 -132 -67c-33 -44 -49 -113 -49 -207
s16 -163 49 -208c33 -44 77 -66 132 -66s99 22 132 66c33 45 49 114 49 208s-16 163 -49 207zM302 756h-66l67 144h121z" />
    <glyph glyph-name="Ocircumflex" unicode="&#xd4;" 
d="M114 615c51 62 116 93 196 93s145 -31 196 -93c51 -61 76 -150 76 -265s-25 -204 -76 -266c-51 -61 -116 -92 -196 -92s-145 31 -196 92c-51 62 -76 151 -76 266s25 204 76 265zM442 557c-33 45 -77 67 -132 67s-99 -22 -132 -67c-33 -44 -49 -113 -49 -207
s16 -163 49 -208c33 -44 77 -66 132 -66s99 22 132 66c33 45 49 114 49 208s-16 163 -49 207zM230 762h-87l154 164h26l154 -164h-87l-80 85z" />
    <glyph glyph-name="Otilde" unicode="&#xd5;" 
d="M114 615c51 62 116 93 196 93s145 -31 196 -93c51 -61 76 -150 76 -265s-25 -204 -76 -266c-51 -61 -116 -92 -196 -92s-145 31 -196 92c-51 62 -76 151 -76 266s25 204 76 265zM442 557c-33 45 -77 67 -132 67s-99 -22 -132 -67c-33 -44 -49 -113 -49 -207
s16 -163 49 -208c33 -44 77 -66 132 -66s99 22 132 66c33 45 49 114 49 208s-16 163 -49 207zM183 782l-49 38c24 45 64 76 107 76c24 0 48 -7 72 -20s44 -20 59 -20c25 0 47 12 66 36l49 -39c-24 -44 -64 -75 -107 -75c-24 0 -48 7 -72 20s-44 20 -59 20
c-25 0 -47 -12 -66 -36z" />
    <glyph glyph-name="Odieresis" unicode="&#xd6;" 
d="M114 615c51 62 116 93 196 93s145 -31 196 -93c51 -61 76 -150 76 -265s-25 -204 -76 -266c-51 -61 -116 -92 -196 -92s-145 31 -196 92c-51 62 -76 151 -76 266s25 204 76 265zM442 557c-33 45 -77 67 -132 67s-99 -22 -132 -67c-33 -44 -49 -113 -49 -207
s16 -163 49 -208c33 -44 77 -66 132 -66s99 22 132 66c33 45 49 114 49 208s-16 163 -49 207zM218 904c33 0 57 -25 57 -57s-24 -56 -57 -56c-31 0 -56 24 -56 56s25 57 56 57zM402 904c33 0 57 -25 57 -57s-24 -56 -57 -56c-31 0 -56 24 -56 56s25 57 56 57z" />
    <glyph glyph-name="multiply" unicode="&#xd7;" 
d="M310 371l158 158l52 -52l-158 -158l158 -158l-52 -52l-158 158l-158 -158l-52 52l158 158l-158 158l52 52z" />
    <glyph glyph-name="Oslash" unicode="&#xd8;" 
d="M482 641l66 86l63 -44l-80 -106c34 -61 51 -136 51 -227c0 -115 -25 -204 -76 -266c-51 -61 -116 -92 -196 -92c-69 0 -127 22 -172 67l-66 -86l-63 44l80 106c-34 61 -51 136 -51 227c0 115 25 204 76 265c51 62 116 93 196 93c69 0 127 -22 172 -67zM310 624
c-111 0 -181 -86 -181 -274c0 -59 7 -108 20 -148l281 370c-30 35 -70 52 -120 52zM491 350c0 59 -7 108 -20 148l-281 -370c30 -35 70 -52 120 -52c111 0 181 86 181 274z" />
    <glyph glyph-name="Ugrave" unicode="&#xd9;" 
d="M62 243v457h88v-463c0 -96 59 -161 160 -161s160 65 160 161v463h88v-457c0 -78 -23 -139 -70 -184s-106 -67 -178 -67s-131 22 -178 67s-70 106 -70 184zM195 900h121l67 -144h-66z" />
    <glyph glyph-name="Uacute" unicode="&#xda;" 
d="M62 243v457h88v-463c0 -96 59 -161 160 -161s160 65 160 161v463h88v-457c0 -78 -23 -139 -70 -184s-106 -67 -178 -67s-131 22 -178 67s-70 106 -70 184zM312 756h-66l67 144h121z" />
    <glyph glyph-name="Ucircumflex" unicode="&#xdb;" 
d="M62 243v457h88v-463c0 -96 59 -161 160 -161s160 65 160 161v463h88v-457c0 -78 -23 -139 -70 -184s-106 -67 -178 -67s-131 22 -178 67s-70 106 -70 184zM230 762h-87l154 164h26l154 -164h-87l-80 85z" />
    <glyph glyph-name="Udieresis" unicode="&#xdc;" 
d="M62 243v457h88v-463c0 -96 59 -161 160 -161s160 65 160 161v463h88v-457c0 -78 -23 -139 -70 -184s-106 -67 -178 -67s-131 22 -178 67s-70 106 -70 184zM218 904c33 0 57 -25 57 -57s-24 -56 -57 -56c-31 0 -56 24 -56 56s25 57 56 57zM402 904c33 0 57 -25 57 -57
s-24 -56 -57 -56c-31 0 -56 24 -56 56s25 57 56 57z" />
    <glyph glyph-name="Yacute" unicode="&#xdd;" 
d="M266 0v276l-225 424h97l172 -336l172 336h97l-225 -424v-276h-88zM311 756h-66l67 144h121z" />
    <glyph glyph-name="Thorn" unicode="&#xde;" 
d="M352 150h-159v-150h-88v700h88v-150h159c133 0 208 -76 208 -200s-75 -200 -208 -200zM193 234h157c79 0 119 39 119 116s-40 116 -119 116h-157v-232z" />
    <glyph glyph-name="germandbls" unicode="&#xdf;" 
d="M119 344h-50v76h50v85c0 65 18 115 54 150s81 53 135 53c121 0 186 -75 186 -179c0 -73 -37 -123 -90 -139c79 -15 137 -77 137 -178c0 -145 -82 -220 -215 -220c-27 0 -51 2 -71 7v76c23 -5 45 -7 65 -7c88 0 137 47 137 138s-52 138 -141 138h-35v76h35
c65 0 98 35 98 106c0 68 -42 106 -106 106c-65 0 -105 -47 -105 -130v-502h-84v344z" />
    <glyph glyph-name="agrave" unicode="&#xe0;" 
d="M197 145c0 -48 32 -77 83 -77c40 0 77 13 110 38c34 26 51 65 51 116v16h-110c-85 0 -134 -36 -134 -93zM525 318v-318h-68l-12 71c-32 -47 -103 -79 -178 -79c-89 0 -156 54 -156 153c0 109 85 165 228 165h102v22c0 73 -48 104 -116 104c-57 0 -103 -35 -119 -86
l-74 20c23 87 100 142 193 142c124 0 200 -61 200 -194zM196 704h121l67 -144h-66z" />
    <glyph glyph-name="aacute" unicode="&#xe1;" 
d="M197 145c0 -48 32 -77 83 -77c40 0 77 13 110 38c34 26 51 65 51 116v16h-110c-85 0 -134 -36 -134 -93zM525 318v-318h-68l-12 71c-32 -47 -103 -79 -178 -79c-89 0 -156 54 -156 153c0 109 85 165 228 165h102v22c0 73 -48 104 -116 104c-57 0 -103 -35 -119 -86
l-74 20c23 87 100 142 193 142c124 0 200 -61 200 -194zM316 560h-66l67 144h121z" />
    <glyph glyph-name="acircumflex" unicode="&#xe2;" 
d="M197 145c0 -48 32 -77 83 -77c40 0 77 13 110 38c34 26 51 65 51 116v16h-110c-85 0 -134 -36 -134 -93zM525 318v-318h-68l-12 71c-32 -47 -103 -79 -178 -79c-89 0 -156 54 -156 153c0 109 85 165 228 165h102v22c0 73 -48 104 -116 104c-57 0 -103 -35 -119 -86
l-74 20c23 87 100 142 193 142c124 0 200 -61 200 -194zM245 566h-87l154 164h26l154 -164h-87l-80 85z" />
    <glyph glyph-name="atilde" unicode="&#xe3;" 
d="M197 145c0 -48 32 -77 83 -77c40 0 77 13 110 38c34 26 51 65 51 116v16h-110c-85 0 -134 -36 -134 -93zM525 318v-318h-68l-12 71c-32 -47 -103 -79 -178 -79c-89 0 -156 54 -156 153c0 109 85 165 228 165h102v22c0 73 -48 104 -116 104c-57 0 -103 -35 -119 -86
l-74 20c23 87 100 142 193 142c124 0 200 -61 200 -194zM197 586l-49 38c24 45 64 76 107 76c24 0 48 -7 72 -20s44 -20 59 -20c25 0 47 12 66 36l49 -39c-24 -44 -64 -75 -107 -75c-24 0 -48 7 -72 20s-44 20 -59 20c-25 0 -47 -12 -66 -36z" />
    <glyph glyph-name="adieresis" unicode="&#xe4;" 
d="M197 145c0 -48 32 -77 83 -77c40 0 77 13 110 38c34 26 51 65 51 116v16h-110c-85 0 -134 -36 -134 -93zM525 318v-318h-68l-12 71c-32 -47 -103 -79 -178 -79c-89 0 -156 54 -156 153c0 109 85 165 228 165h102v22c0 73 -48 104 -116 104c-57 0 -103 -35 -119 -86
l-74 20c23 87 100 142 193 142c124 0 200 -61 200 -194zM238 708c33 0 57 -25 57 -57s-24 -56 -57 -56c-31 0 -56 24 -56 56s25 57 56 57zM422 708c33 0 57 -25 57 -57s-24 -56 -57 -56c-31 0 -56 24 -56 56s25 57 56 57z" />
    <glyph glyph-name="aring" unicode="&#xe5;" 
d="M197 145c0 -48 32 -77 83 -77c40 0 77 13 110 38c34 26 51 65 51 116v16h-110c-85 0 -134 -36 -134 -93zM525 318v-318h-68l-12 71c-32 -47 -103 -79 -178 -79c-89 0 -156 54 -156 153c0 109 85 165 228 165h102v22c0 73 -48 104 -116 104c-57 0 -103 -35 -119 -86
l-74 20c23 87 100 142 193 142c124 0 200 -61 200 -194zM223 653c0 56 43 100 99 100c57 0 99 -44 99 -100c0 -55 -42 -96 -99 -96c-56 0 -99 41 -99 96zM279 654c-5 -57 91 -57 86 0c5 60 -91 60 -86 0z" />
    <glyph glyph-name="ae" unicode="&#xe6;" 
d="M607 284v-50h-242c0 -105 28 -166 79 -166c43 0 66 30 85 99l72 -21c-31 -104 -76 -154 -157 -154c-59 0 -102 35 -119 90c-27 -60 -75 -90 -144 -90c-87 0 -145 56 -145 152c0 107 76 166 188 166h55v32c0 56 -25 94 -68 94s-69 -29 -80 -86l-74 20c5 40 22 74 50 101
s62 41 103 41c59 0 98 -25 117 -76c25 47 72 76 123 76c100 0 157 -83 157 -228zM122 147c0 -48 26 -79 67 -79c61 0 90 56 90 131v39h-44c-73 0 -113 -32 -113 -91zM444 436c-45 0 -79 -50 -79 -126h158c0 73 -30 126 -79 126z" />
    <glyph glyph-name="ccedilla" unicode="&#xe7;" 
d="M470 161l73 -30c-41 -93 -112 -139 -213 -139c-74 0 -133 25 -176 76s-65 112 -65 184s22 133 65 184s102 76 176 76c101 0 172 -46 213 -139l-73 -30c-27 62 -73 93 -140 93c-97 0 -155 -76 -155 -184s58 -184 155 -184c67 0 113 31 140 93zM319 -60h70l-83 -175l-95 45
z" />
    <glyph glyph-name="egrave" unicode="&#xe8;" 
d="M556 269v-35h-394c5 -100 66 -166 155 -166c72 0 126 33 162 100l67 -35c-49 -94 -125 -141 -229 -141c-72 0 -130 25 -175 74c-44 49 -66 111 -66 186c0 73 22 135 65 185c44 50 103 75 176 75c75 0 134 -23 176 -70c42 -46 63 -104 63 -173zM317 436
c-79 0 -132 -47 -149 -126h299c-15 80 -69 126 -150 126zM192 704h121l67 -144h-66z" />
    <glyph glyph-name="eacute" unicode="&#xe9;" 
d="M556 269v-35h-394c5 -100 66 -166 155 -166c72 0 126 33 162 100l67 -35c-49 -94 -125 -141 -229 -141c-72 0 -130 25 -175 74c-44 49 -66 111 -66 186c0 73 22 135 65 185c44 50 103 75 176 75c75 0 134 -23 176 -70c42 -46 63 -104 63 -173zM317 436
c-79 0 -132 -47 -149 -126h299c-15 80 -69 126 -150 126zM300 560h-66l67 144h121z" />
    <glyph glyph-name="ecircumflex" unicode="&#xea;" 
d="M556 269v-35h-394c5 -100 66 -166 155 -166c72 0 126 33 162 100l67 -35c-49 -94 -125 -141 -229 -141c-72 0 -130 25 -175 74c-44 49 -66 111 -66 186c0 73 22 135 65 185c44 50 103 75 176 75c75 0 134 -23 176 -70c42 -46 63 -104 63 -173zM317 436
c-79 0 -132 -47 -149 -126h299c-15 80 -69 126 -150 126zM237 566h-87l154 164h26l154 -164h-87l-80 85z" />
    <glyph glyph-name="edieresis" unicode="&#xeb;" 
d="M556 269v-35h-394c5 -100 66 -166 155 -166c72 0 126 33 162 100l67 -35c-49 -94 -125 -141 -229 -141c-72 0 -130 25 -175 74c-44 49 -66 111 -66 186c0 73 22 135 65 185c44 50 103 75 176 75c75 0 134 -23 176 -70c42 -46 63 -104 63 -173zM317 436
c-79 0 -132 -47 -149 -126h299c-15 80 -69 126 -150 126zM225 708c33 0 57 -25 57 -57s-24 -56 -57 -56c-31 0 -56 24 -56 56s25 57 56 57zM409 708c33 0 57 -25 57 -57s-24 -56 -57 -56c-31 0 -56 24 -56 56s25 57 56 57z" />
    <glyph glyph-name="igrave" unicode="&#xec;" 
d="M283 430h-154v74h238v-430h186v-74h-444v74h174v356zM174 704h121l67 -144h-66z" />
    <glyph glyph-name="iacute" unicode="&#xed;" 
d="M283 430h-154v74h238v-430h186v-74h-444v74h174v356zM271 560h-66l67 144h121z" />
    <glyph glyph-name="icircumflex" unicode="&#xee;" 
d="M283 430h-154v74h238v-430h186v-74h-444v74h174v356zM216 566h-87l154 164h26l154 -164h-87l-80 85z" />
    <glyph glyph-name="idieresis" unicode="&#xef;" 
d="M283 430h-154v74h238v-430h186v-74h-444v74h174v356zM205 708c33 0 57 -25 57 -57s-24 -56 -57 -56c-31 0 -56 24 -56 56s25 57 56 57zM389 708c33 0 57 -25 57 -57s-24 -56 -57 -56c-31 0 -56 24 -56 56s25 57 56 57z" />
    <glyph glyph-name="eth" unicode="&#xf0;" 
d="M316 601l-39 -59l-59 42l38 57c-21 12 -48 25 -80 38l40 61c30 -13 57 -26 80 -39l37 54l58 -42l-34 -51c69 -52 119 -110 150 -173s46 -138 46 -227c0 -77 -22 -141 -65 -193c-43 -51 -102 -77 -175 -77s-131 25 -175 76c-43 51 -65 112 -65 184s22 133 65 184
c44 51 102 76 175 76c44 0 96 -19 116 -44c-20 53 -54 89 -113 133zM467 252c0 51 -14 95 -41 130c-27 36 -65 54 -113 54c-49 0 -87 -18 -114 -55c-27 -36 -40 -79 -40 -129s13 -93 40 -130c27 -36 65 -54 114 -54s86 18 113 54c27 37 41 80 41 130z" />
    <glyph glyph-name="ntilde" unicode="&#xf1;" 
d="M522 351v-351h-84v333c0 69 -31 103 -93 103c-41 0 -76 -21 -105 -64c-29 -42 -43 -98 -43 -169v-203h-84v504h84v-93c37 60 102 101 171 101c103 0 154 -61 154 -161zM198 586l-49 38c24 45 64 76 107 76c24 0 48 -7 72 -20s44 -20 59 -20c25 0 47 12 66 36l49 -39
c-24 -44 -64 -75 -107 -75c-24 0 -48 7 -72 20s-44 20 -59 20c-25 0 -47 -12 -66 -36z" />
    <glyph glyph-name="ograve" unicode="&#xf2;" 
d="M130 68c-45 51 -68 112 -68 184s23 133 68 184s105 76 180 76s135 -25 180 -76s68 -112 68 -184s-23 -133 -68 -184s-105 -76 -180 -76s-135 25 -180 76zM192 382c-29 -36 -44 -79 -44 -130s15 -94 44 -130s69 -54 118 -54s89 18 118 54s44 79 44 130s-15 94 -44 130
s-69 54 -118 54s-89 -18 -118 -54zM189 704h121l67 -144h-66z" />
    <glyph glyph-name="oacute" unicode="&#xf3;" 
d="M130 68c-45 51 -68 112 -68 184s23 133 68 184s105 76 180 76s135 -25 180 -76s68 -112 68 -184s-23 -133 -68 -184s-105 -76 -180 -76s-135 25 -180 76zM192 382c-29 -36 -44 -79 -44 -130s15 -94 44 -130s69 -54 118 -54s89 18 118 54s44 79 44 130s-15 94 -44 130
s-69 54 -118 54s-89 -18 -118 -54zM296 560h-66l67 144h121z" />
    <glyph glyph-name="ocircumflex" unicode="&#xf4;" 
d="M130 68c-45 51 -68 112 -68 184s23 133 68 184s105 76 180 76s135 -25 180 -76s68 -112 68 -184s-23 -133 -68 -184s-105 -76 -180 -76s-135 25 -180 76zM192 382c-29 -36 -44 -79 -44 -130s15 -94 44 -130s69 -54 118 -54s89 18 118 54s44 79 44 130s-15 94 -44 130
s-69 54 -118 54s-89 -18 -118 -54zM230 566h-87l154 164h26l154 -164h-87l-80 85z" />
    <glyph glyph-name="otilde" unicode="&#xf5;" 
d="M130 68c-45 51 -68 112 -68 184s23 133 68 184s105 76 180 76s135 -25 180 -76s68 -112 68 -184s-23 -133 -68 -184s-105 -76 -180 -76s-135 25 -180 76zM192 382c-29 -36 -44 -79 -44 -130s15 -94 44 -130s69 -54 118 -54s89 18 118 54s44 79 44 130s-15 94 -44 130
s-69 54 -118 54s-89 -18 -118 -54zM182 586l-49 38c24 45 64 76 107 76c24 0 48 -7 72 -20s44 -20 59 -20c25 0 47 12 66 36l49 -39c-24 -44 -64 -75 -107 -75c-24 0 -48 7 -72 20s-44 20 -59 20c-25 0 -47 -12 -66 -36z" />
    <glyph glyph-name="odieresis" unicode="&#xf6;" 
d="M130 68c-45 51 -68 112 -68 184s23 133 68 184s105 76 180 76s135 -25 180 -76s68 -112 68 -184s-23 -133 -68 -184s-105 -76 -180 -76s-135 25 -180 76zM192 382c-29 -36 -44 -79 -44 -130s15 -94 44 -130s69 -54 118 -54s89 18 118 54s44 79 44 130s-15 94 -44 130
s-69 54 -118 54s-89 -18 -118 -54zM218 708c33 0 57 -25 57 -57s-24 -56 -57 -56c-31 0 -56 24 -56 56s25 57 56 57zM402 708c33 0 57 -25 57 -57s-24 -56 -57 -56c-31 0 -56 24 -56 56s25 57 56 57z" />
    <glyph glyph-name="divide" unicode="&#xf7;" 
d="M263 443c-25 25 -25 71 0 95c25 25 69 25 94 0c25 -24 25 -70 0 -95c-25 -24 -69 -24 -94 0zM530 280h-440v74h440v-74zM263 95c-25 25 -25 71 0 95c25 25 69 25 94 0c25 -24 25 -70 0 -95c-25 -24 -69 -24 -94 0z" />
    <glyph glyph-name="oslash" unicode="&#xf8;" 
d="M439 477l55 70l61 -43l-59 -75c41 -49 62 -108 62 -177c0 -72 -23 -133 -68 -184s-105 -76 -180 -76c-48 0 -91 12 -129 35l-55 -70l-61 43l59 75c-41 49 -62 108 -62 177c0 72 23 133 68 184s105 76 180 76c48 0 91 -12 129 -35zM472 252c0 41 -10 78 -29 109l-213 -272
c25 -14 51 -21 80 -21c49 0 89 18 118 54s44 79 44 130zM148 252c0 -41 10 -78 29 -109l213 272c-25 14 -51 21 -80 21c-49 0 -89 -18 -118 -54s-44 -79 -44 -130z" />
    <glyph glyph-name="ugrave" unicode="&#xf9;" 
d="M103 153v351h84v-333c0 -69 31 -103 93 -103c41 0 76 21 105 63c29 43 43 99 43 170v203h84v-504h-84v93c-37 -60 -102 -101 -171 -101c-103 0 -154 61 -154 161zM198 704h121l67 -144h-66z" />
    <glyph glyph-name="uacute" unicode="&#xfa;" 
d="M103 153v351h84v-333c0 -69 31 -103 93 -103c41 0 76 21 105 63c29 43 43 99 43 170v203h84v-504h-84v93c-37 -60 -102 -101 -171 -101c-103 0 -154 61 -154 161zM308 560h-66l67 144h121z" />
    <glyph glyph-name="ucircumflex" unicode="&#xfb;" 
d="M103 153v351h84v-333c0 -69 31 -103 93 -103c41 0 76 21 105 63c29 43 43 99 43 170v203h84v-504h-84v93c-37 -60 -102 -101 -171 -101c-103 0 -154 61 -154 161zM230 566h-87l154 164h26l154 -164h-87l-80 85z" />
    <glyph glyph-name="udieresis" unicode="&#xfc;" 
d="M103 153v351h84v-333c0 -69 31 -103 93 -103c41 0 76 21 105 63c29 43 43 99 43 170v203h84v-504h-84v93c-37 -60 -102 -101 -171 -101c-103 0 -154 61 -154 161zM218 708c33 0 57 -25 57 -57s-24 -56 -57 -56c-31 0 -56 24 -56 56s25 57 56 57zM402 708
c33 0 57 -25 57 -57s-24 -56 -57 -56c-31 0 -56 24 -56 56s25 57 56 57z" />
    <glyph glyph-name="yacute" unicode="&#xfd;" 
d="M335 135l149 369h91l-299 -708h-84l98 238l-218 470h94zM330 560h-66l67 144h121z" />
    <glyph glyph-name="thorn" unicode="&#xfe;" 
d="M326 -8c-65 0 -123 32 -154 75v-271h-84v912h84v-268c40 48 91 72 154 72c145 0 231 -103 231 -260s-86 -260 -231 -260zM430 119c27 34 41 78 41 133s-14 99 -41 133s-65 51 -112 51s-85 -17 -112 -51s-41 -78 -41 -133s14 -99 41 -133s65 -51 112 -51s85 17 112 51z
" />
    <glyph glyph-name="ydieresis" unicode="&#xff;" 
d="M335 135l149 369h91l-299 -708h-84l98 238l-218 470h94zM233 708c33 0 57 -25 57 -57s-24 -56 -57 -56c-31 0 -56 24 -56 56s25 57 56 57zM417 708c33 0 57 -25 57 -57s-24 -56 -57 -56c-31 0 -56 24 -56 56s25 57 56 57z" />
    <glyph glyph-name="dotlessi" unicode="&#x131;" 
d="M283 430h-154v74h238v-430h186v-74h-444v74h174v356z" />
    <glyph glyph-name="Lslash" unicode="&#x141;" 
d="M133 263l-54 -30l-36 65l90 51v351h88v-301l110 62l36 -65l-146 -83v-229h357v-84h-445v263z" />
    <glyph glyph-name="lslash" unicode="&#x142;" 
d="M209 366v258h-139v76h223v-287l84 48l36 -64l-120 -68v-139c0 -81 35 -122 106 -122c65 0 104 40 117 121l76 -15c-17 -120 -88 -182 -193 -182c-117 0 -190 75 -190 199v90l-84 -47l-36 64z" />
    <glyph glyph-name="OE" unicode="&#x152;" 
d="M299 700h262v-84h-183v-201h156v-84h-156v-247h193v-84h-272c-159 0 -261 118 -261 350s102 350 261 350zM129 350c0 -191 53 -266 161 -266v540c-107 0 -161 -82 -161 -274z" />
    <glyph glyph-name="oe" unicode="&#x153;" 
d="M321 -8c-75 0 -135 25 -180 76s-68 112 -68 184s23 133 68 184s105 76 180 76s134 -23 176 -70c42 -46 63 -104 63 -173v-35h-197v-162c51 11 91 43 120 96l67 -35c-49 -94 -125 -141 -229 -141zM159 252c0 -87 42 -159 118 -179v357c-75 -19 -118 -93 -118 -178z
M363 310h108c-14 70 -50 111 -108 122v-122z" />
    <glyph glyph-name="Scaron" unicode="&#x160;" 
d="M536 558l-77 -39c-31 70 -78 105 -142 105c-77 0 -126 -40 -126 -108c0 -34 13 -59 38 -74c26 -15 67 -30 124 -45c51 -13 78 -21 115 -41c55 -28 81 -68 84 -141c0 -148 -91 -223 -232 -223c-135 0 -234 73 -261 208l82 32c27 -104 87 -156 179 -156
c88 0 144 44 144 127c0 29 -12 51 -25 64c-7 7 -18 13 -34 19c-31 13 -49 19 -100 31c-49 12 -73 19 -113 39c-56 29 -85 73 -89 157c0 57 19 104 57 140c38 37 90 55 157 55c113 0 187 -65 219 -150zM329 762h-26l-154 164h87l80 -85l80 85h87z" />
    <glyph glyph-name="scaron" unicode="&#x161;" 
d="M307 512c83 0 144 -36 184 -109l-66 -47c-29 53 -70 80 -121 80c-48 0 -87 -22 -87 -67c0 -41 37 -62 117 -78c43 -9 70 -15 103 -30c47 -20 78 -54 78 -107c0 -50 -19 -90 -56 -119s-83 -43 -138 -43c-104 0 -188 53 -219 146l80 30c23 -63 71 -100 139 -100
c61 0 107 27 107 78c0 40 -38 54 -130 74c-103 21 -163 57 -163 146c0 44 17 79 50 106s74 40 122 40zM323 566h-26l-154 164h87l80 -85l80 85h87z" />
    <glyph glyph-name="Ydieresis" unicode="&#x178;" 
d="M266 0v276l-225 424h97l172 -336l172 336h97l-225 -424v-276h-88zM218 904c33 0 57 -25 57 -57s-24 -56 -57 -56c-31 0 -56 24 -56 56s25 57 56 57zM402 904c33 0 57 -25 57 -57s-24 -56 -57 -56c-31 0 -56 24 -56 56s25 57 56 57z" />
    <glyph glyph-name="Zcaron" unicode="&#x17d;" 
d="M406 616h-329v84h456v-42l-343 -574h354v-84h-481v42zM318 762h-26l-154 164h87l80 -85l80 85h87z" />
    <glyph glyph-name="zcaron" unicode="&#x17e;" 
d="M374 428h-251v76h378v-36l-267 -392h279v-76h-403v36zM325 566h-26l-154 164h87l80 -85l80 85h87z" />
    <glyph glyph-name="florin" unicode="&#x192;" 
d="M8 -183l36 74c21 -18 46 -27 75 -27c49 0 80 32 93 95l91 469h-142l15 76h142l6 31c25 127 83 173 182 173c43 0 78 -10 106 -29l-36 -74c-21 18 -46 27 -75 27c-49 0 -80 -32 -93 -95l-6 -33h196l-15 -76h-196l-91 -467c-25 -127 -83 -173 -182 -173
c-43 0 -78 10 -106 29z" />
    <glyph glyph-name="circumflex" unicode="&#x2c6;" 
d="M230 566h-87l154 164h26l154 -164h-87l-80 85z" />
    <glyph glyph-name="caron" unicode="&#x2c7;" 
d="M323 566h-26l-154 164h87l80 -85l80 85h87z" />
    <glyph glyph-name="breve" unicode="&#x2d8;" 
d="M354 700h67c0 -61 -47 -109 -111 -109c-63 0 -111 48 -111 109h67c0 -27 19 -45 44 -45c27 0 44 18 44 45z" />
    <glyph glyph-name="dotaccent" unicode="&#x2d9;" 
d="M241 638c0 39 30 70 69 70s69 -31 69 -70s-30 -68 -69 -68s-69 31 -69 68z" />
    <glyph glyph-name="ring" unicode="&#x2da;" 
d="M211 653c0 56 43 100 99 100c57 0 99 -44 99 -100c0 -55 -42 -96 -99 -96c-56 0 -99 41 -99 96zM267 654c-5 -57 91 -57 86 0c5 60 -91 60 -86 0z" />
    <glyph glyph-name="ogonek" unicode="&#x2db;" 
d="M268 -60h69c-41 -35 -62 -63 -62 -84s11 -32 33 -32c24 0 35 11 62 43l47 -36c-37 -53 -68 -75 -120 -75c-57 0 -95 34 -95 87c0 35 22 68 66 97z" />
    <glyph glyph-name="tilde" unicode="&#x2dc;" 
d="M182 586l-49 38c24 45 64 76 107 76c24 0 48 -7 72 -20s44 -20 59 -20c25 0 47 12 66 36l49 -39c-24 -44 -64 -75 -107 -75c-24 0 -48 7 -72 20s-44 20 -59 20c-25 0 -47 -12 -66 -36z" />
    <glyph glyph-name="hungarumlaut" unicode="&#x2dd;" 
d="M188 560h-68l68 144h121zM378 560h-68l68 144h121z" />
    <glyph glyph-name="uni2206" unicode="&#x394;" 
d="M559 0h-498v20l210 680h78l210 -680v-20zM464 76l-154 505l-154 -505h308z" />
    <glyph glyph-name="uni2206" unicode="&#x2206;" 
d="M559 0h-498v20l210 680h78l210 -680v-20zM464 76l-154 505l-154 -505h308z" />
    <glyph glyph-name="uni2126" unicode="&#x3a9;" 
d="M274 0h-226v76h135l-31 56c-12 24 -28 68 -49 132c-20 64 -30 123 -30 176c0 165 84 268 237 268s237 -103 237 -268c0 -53 -9 -110 -28 -171c-18 -61 -36 -108 -55 -142l-27 -51h135v-76h-226v23l12 24c5 10 14 31 27 62c13 32 25 64 35 95s19 69 27 112
c8 44 12 85 12 124c0 124 -52 192 -149 192s-149 -68 -149 -192c0 -119 33 -247 98 -386c10 -21 15 -31 15 -31v-23z" />
    <glyph glyph-name="uni2126" unicode="&#x2126;" 
d="M274 0h-226v76h135l-31 56c-12 24 -28 68 -49 132c-20 64 -30 123 -30 176c0 165 84 268 237 268s237 -103 237 -268c0 -53 -9 -110 -28 -171c-18 -61 -36 -108 -55 -142l-27 -51h135v-76h-226v23l12 24c5 10 14 31 27 62c13 32 25 64 35 95s19 69 27 112
c8 44 12 85 12 124c0 124 -52 192 -149 192s-149 -68 -149 -192c0 -119 33 -247 98 -386c10 -21 15 -31 15 -31v-23z" />
    <glyph glyph-name="pi" unicode="&#x3c0;" 
d="M134 428h-88v76h528v-76h-88v-428h-84v428h-184v-428h-84v428z" />
    <glyph glyph-name="uni2000" unicode="&#x2000;" horiz-adv-x="474" 
 />
    <glyph glyph-name="uni2001" unicode="&#x2001;" horiz-adv-x="949" 
 />
    <glyph glyph-name="uni2002" unicode="&#x2002;" horiz-adv-x="474" 
 />
    <glyph glyph-name="uni2003" unicode="&#x2003;" horiz-adv-x="949" 
 />
    <glyph glyph-name="uni2004" unicode="&#x2004;" horiz-adv-x="316" 
 />
    <glyph glyph-name="uni2005" unicode="&#x2005;" horiz-adv-x="237" 
 />
    <glyph glyph-name="uni2006" unicode="&#x2006;" horiz-adv-x="158" 
 />
    <glyph glyph-name="uni2007" unicode="&#x2007;" horiz-adv-x="158" 
 />
    <glyph glyph-name="uni2008" unicode="&#x2008;" horiz-adv-x="118" 
 />
    <glyph glyph-name="uni2009" unicode="&#x2009;" horiz-adv-x="189" 
 />
    <glyph glyph-name="uni200A" unicode="&#x200a;" horiz-adv-x="52" 
 />
    <glyph glyph-name="uni2010" unicode="&#x2010;" 
d="M485 280h-349v74h349v-74z" />
    <glyph glyph-name="uni2011" unicode="&#x2011;" 
d="M485 280h-349v74h349v-74z" />
    <glyph glyph-name="endash" unicode="&#x2013;" 
d="M514 280h-409v74h409v-74z" />
    <glyph glyph-name="emdash" unicode="&#x2014;" 
d="M555 280h-490v74h490v-74z" />
    <glyph glyph-name="quoteleft" unicode="&#x2018;" 
d="M200 708h126l95 -248h-64z" />
    <glyph glyph-name="quoteright" unicode="&#x2019;" 
d="M263 460h-64l95 248h126z" />
    <glyph glyph-name="quotesinglbase" unicode="&#x201a;" 
d="M263 -57h-64l95 248h126z" />
    <glyph glyph-name="quotedblleft" unicode="&#x201c;" 
d="M308 708h126l95 -248h-64zM92 708h126l95 -248h-64z" />
    <glyph glyph-name="quotedblright" unicode="&#x201d;" 
d="M155 460h-64l95 248h126zM371 460h-64l95 248h126z" />
    <glyph glyph-name="quotedblbase" unicode="&#x201e;" 
d="M155 -57h-64l95 248h126zM371 -57h-64l95 248h126z" />
    <glyph glyph-name="dagger" unicode="&#x2020;" 
d="M270 424h-180v80h180v246h80v-246h180v-80h-180v-474h-80v474z" />
    <glyph glyph-name="daggerdbl" unicode="&#x2021;" 
d="M270 424h-180v80h180v246h80v-246h180v-80h-180v-148h180v-80h-180v-246h-80v246h-180v80h180v148z" />
    <glyph glyph-name="bullet" unicode="&#x2022;" 
d="M231 251c-21 22 -32 48 -32 79s11 57 32 78c22 22 48 33 79 33s57 -11 78 -33c22 -21 33 -47 33 -78s-11 -57 -33 -79c-21 -21 -47 -32 -78 -32s-57 11 -79 32z" />
    <glyph glyph-name="ellipsis" unicode="&#x2026;" 
d="M30 74c0 47 34 82 78 82c45 0 82 -37 82 -82c0 -44 -35 -78 -82 -78c-44 0 -78 34 -78 78zM230 74c0 47 34 82 78 82c45 0 82 -37 82 -82c0 -44 -35 -78 -82 -78c-44 0 -78 34 -78 78zM430 74c0 47 34 82 78 82c45 0 82 -37 82 -82c0 -44 -35 -78 -82 -78
c-44 0 -78 34 -78 78z" />
    <glyph glyph-name="uni202F" unicode="&#x202f;" horiz-adv-x="189" 
 />
    <glyph glyph-name="perthousand" unicode="&#x2030;" 
d="M468 -8c-42 0 -76 16 -103 47c-27 -31 -61 -47 -103 -47c-37 0 -69 13 -94 38c-25 26 -38 58 -38 95s13 69 38 94c25 26 57 39 94 39c42 0 76 -16 103 -47c27 31 61 47 103 47c37 0 69 -13 94 -39c25 -25 38 -57 38 -94s-13 -69 -38 -95c-25 -25 -57 -38 -94 -38z
M170 708c38 0 70 -13 95 -39c25 -25 38 -57 38 -94s-13 -69 -38 -95c-25 -25 -57 -38 -95 -38c-37 0 -69 13 -95 38c-25 26 -38 58 -38 95s13 69 38 94c26 26 58 39 95 39zM468 199c-41 0 -72 -31 -72 -74s31 -74 72 -74c44 0 71 31 71 74s-27 74 -71 74zM170 501
c43 0 71 31 71 74s-28 74 -71 74c-44 0 -72 -31 -72 -74s28 -74 72 -74zM262 199c-44 0 -71 -31 -71 -74s27 -74 71 -74c41 0 72 31 72 74s-31 74 -72 74zM45 262l507 353l34 -48l-507 -353z" />
    <glyph glyph-name="guilsinglleft" unicode="&#x2039;" 
d="M452 80l-294 199v62l294 199v-90l-209 -140l209 -140v-90z" />
    <glyph glyph-name="guilsinglright" unicode="&#x203a;" 
d="M168 540l294 -199v-62l-294 -199v90l209 140l-209 140v90z" />
    <glyph glyph-name="fraction" unicode="&#x2044;" 
d="M40 196l507 353l34 -48l-507 -353z" />
    <glyph glyph-name="uni205F" unicode="&#x205f;" horiz-adv-x="237" 
 />
    <glyph glyph-name="uni2070" unicode="&#x2070;" 
d="M399 403c-23 -31 -55 -47 -95 -47s-72 16 -96 47c-23 31 -35 74 -35 127s12 96 35 127c24 31 56 47 96 47s72 -16 95 -47c24 -31 36 -74 36 -127s-12 -96 -36 -127zM375 530c0 29 -4 52 -11 71l-85 -180c9 -3 17 -5 25 -5c47 0 71 38 71 114zM233 530c0 -29 4 -52 11 -71
l85 180c-9 3 -17 5 -25 5c-47 0 -71 -38 -71 -114z" />
    <glyph glyph-name="uni2074" unicode="&#x2074;" 
d="M378 360h-62v61h-150v27l139 252h73v-219h50v-60h-50v-61zM316 612l-69 -131h69v131z" />
    <glyph glyph-name="uni2075" unicode="&#x2075;" 
d="M199 451l62 14c7 -33 24 -49 51 -49c33 0 49 19 49 56c0 39 -16 58 -49 58c-21 0 -40 -8 -55 -25l-49 9l18 186h176v-60h-124l-9 -71c13 11 30 16 51 16c67 0 107 -38 107 -113s-46 -116 -115 -116c-59 0 -105 35 -113 95z" />
    <glyph glyph-name="uni2076" unicode="&#x2076;" 
d="M310 577c56 0 102 -39 102 -110c0 -63 -49 -111 -112 -111c-64 0 -113 48 -113 111c0 23 6 46 18 69l90 168h66l-68 -129c7 1 12 2 17 2zM300 517c-29 0 -47 -18 -47 -50s19 -51 47 -51c27 0 46 20 46 51c0 32 -19 50 -46 50z" />
    <glyph glyph-name="uni2077" unicode="&#x2077;" 
d="M450 677l-141 -317h-71l126 280h-155v60h241v-23z" />
    <glyph glyph-name="uni2078" unicode="&#x2078;" 
d="M309 708c61 0 100 -36 100 -91c0 -32 -13 -56 -39 -71c33 -15 49 -43 49 -84c0 -67 -43 -106 -110 -106s-110 39 -110 106c0 41 16 69 48 84c-25 15 -38 39 -38 71c0 55 40 91 100 91zM343 497c-16 19 -52 19 -68 0c-16 -17 -16 -52 0 -71c16 -17 52 -17 68 0
c16 19 16 54 0 71zM349 612c0 28 -13 42 -40 42s-40 -14 -40 -42s13 -42 40 -42s40 14 40 42z" />
    <glyph glyph-name="uni2079" unicode="&#x2079;" 
d="M301 483c-56 0 -102 39 -102 110c0 63 49 111 112 111c64 0 113 -48 113 -111c0 -23 -6 -46 -18 -69l-90 -168h-66l68 129c-7 -1 -12 -2 -17 -2zM311 543c29 0 47 18 47 50s-19 51 -47 51c-27 0 -46 -20 -46 -51c0 -32 19 -50 46 -50z" />
    <glyph glyph-name="Euro" unicode="&#x20ac;" 
d="M127 393h-76l34 74h51c29 152 115 241 246 241c94 0 161 -43 202 -128l-74 -40c-29 59 -71 88 -128 88c-83 0 -135 -54 -158 -161h253l-34 -74h-228c-1 -9 -1 -24 -1 -43s0 -34 1 -43h262l-34 -74h-219c23 -107 75 -161 158 -161c57 0 99 29 128 88l74 -40
c-41 -85 -108 -128 -202 -128c-131 0 -217 89 -246 241h-85l34 74h42c-1 9 -1 24 -1 43s0 34 1 43z" />
    <glyph glyph-name="trademark" unicode="&#x2122;" 
d="M105 642h-93v58h248v-58h-93v-342h-62v342zM306 300v400h67l77 -207l77 207h69v-400h-64v279l-63 -164h-38l-63 164v-279h-62z" />
    <glyph glyph-name="partialdiff" unicode="&#x2202;" 
d="M89 211c0 85 25 157 75 214c51 58 117 87 199 87c53 0 92 -17 116 -50c-13 113 -60 170 -141 170c-54 0 -93 -28 -118 -84l-78 20c33 85 104 140 199 140c149 0 223 -117 223 -351c0 -92 -21 -176 -62 -248c-41 -71 -119 -117 -216 -117c-59 0 -106 20 -143 59
c-36 39 -54 93 -54 160zM355 436c-55 0 -99 -23 -132 -69c-32 -46 -48 -99 -48 -158c0 -85 40 -141 116 -141c56 0 100 22 133 66c33 45 49 99 49 162c0 93 -39 140 -118 140z" />
    <glyph glyph-name="product" unicode="&#x220f;" 
d="M190 0h-84v700h408v-700h-84v624h-240v-624z" />
    <glyph glyph-name="summation" unicode="&#x2211;" 
d="M392 360v-20l-174 -264h320v-76h-456v20l224 330l-224 330v20h456v-76h-320z" />
    <glyph glyph-name="minus" unicode="&#x2212;" 
d="M530 280h-440v74h440v-74z" />
    <glyph glyph-name="radical" unicode="&#x221a;" 
d="M338 119l183 589h80l-231 -708h-66l-101 313h-104v76h153z" />
    <glyph glyph-name="infinity" unicode="&#x221e;" 
d="M310 423c19 57 76 101 141 101c93 0 154 -58 154 -165s-61 -165 -154 -165c-65 0 -122 44 -141 101c-19 -57 -76 -101 -141 -101c-93 0 -154 58 -154 165s61 165 154 165c65 0 122 -44 141 -101zM441 270c48 0 78 33 78 89s-30 89 -78 89c-41 0 -80 -41 -93 -89
c13 -48 52 -89 93 -89zM179 448c-48 0 -78 -33 -78 -89s30 -89 78 -89c41 0 80 41 93 89c-13 48 -52 89 -93 89z" />
    <glyph glyph-name="integral" unicode="&#x222b;" 
d="M8 -183l36 74c21 -18 46 -27 75 -27c49 0 80 32 93 95l112 576c25 127 83 173 182 173c43 0 78 -10 106 -29l-36 -74c-21 18 -46 27 -75 27c-49 0 -80 -32 -93 -95l-112 -576c-25 -127 -83 -173 -182 -173c-43 0 -78 10 -106 29z" />
    <glyph glyph-name="approxequal" unicode="&#x2248;" 
d="M125 168l-49 50c29 55 79 89 132 89c29 0 63 -8 102 -25s69 -25 92 -25c37 0 68 15 93 45l49 -51c-29 -55 -77 -88 -132 -88c-29 0 -63 8 -102 25c-38 17 -69 25 -92 25c-37 0 -68 -15 -93 -45zM125 368l-49 50c29 55 79 89 132 89c29 0 63 -8 102 -25s69 -25 92 -25
c37 0 68 15 93 45l49 -51c-29 -55 -77 -88 -132 -88c-29 0 -63 8 -102 25c-38 17 -69 25 -92 25c-37 0 -68 -15 -93 -45z" />
    <glyph glyph-name="notequal" unicode="&#x2260;" 
d="M294 356h-183v74h225l59 102l64 -37l-37 -65h88v-74h-131l-52 -92h183v-74h-225l-59 -102l-64 37l37 65h-88v74h131z" />
    <glyph glyph-name="lessequal" unicode="&#x2264;" 
d="M514 162l-409 196v88l409 196v-87l-325 -153l325 -153v-87zM530 0h-440v74h440v-74z" />
    <glyph glyph-name="greaterequal" unicode="&#x2265;" 
d="M106 642l409 -196v-88l-409 -196v87l325 153l-325 153v87zM90 74h440v-74h-440v74z" />
    <glyph glyph-name="lozenge" unicode="&#x25ca;" 
d="M351 0h-82l-208 350l208 350h82l208 -350zM151 350l159 -269l159 269l-159 269z" />
    <glyph glyph-name="uniFB01" unicode="&#xfb01;" 
d="M139 428h-92v76h92v26c0 115 77 178 185 178c69 0 128 -25 177 -76l-58 -55c-44 41 -72 55 -120 55c-63 0 -100 -32 -100 -95v-33h297v-504h-84v428h-213v-428h-84v428z" />
    <glyph glyph-name="uniFB02" unicode="&#xfb02;" 
d="M438 624h-145c-47 0 -70 -32 -70 -95v-25h104v-76h-104v-428h-84v428h-92v76h92v18c0 119 52 178 155 178h228v-700h-84v624z" />
    <glyph glyph-name="CR.001" 
 />
    <glyph glyph-name="apple" 
d="M606 617v-595c0 -12 -10 -22 -22 -22c-2 0 -4 0 -7 1l-267 77l-267 -77c-3 -1 -5 -1 -7 -1c-12 0 -22 10 -22 22v595c0 11 5 19 16 22l270 78c8 3 12 3 20 0l270 -78c11 -3 16 -11 16 -22zM288 366v303l-230 -67c4 -63 28 -116 71 -161c44 -45 97 -70 159 -75zM562 602
l-230 67v-303c62 5 115 30 158 75c44 45 68 98 72 161zM57 463v-412l231 67v204c-97 8 -183 61 -231 141zM332 118l231 -67v412c-49 -80 -134 -133 -231 -141v-204z" />
    <glyph glyph-name="No" 
d="M285 296v404h58v-530h-61l-188 404v-404h-58v530h61zM409 521c-37 41 -37 111 0 152c19 21 43 31 74 31s55 -10 74 -31c37 -41 37 -111 0 -152c-19 -21 -43 -31 -74 -31s-55 10 -74 31zM444 639c-19 -23 -19 -61 0 -85c20 -23 58 -23 77 0c20 24 20 62 0 85
c-19 24 -57 24 -77 0zM585 417h-204v42h204v-42z" />
  </font>
</defs>
</svg>
